<svg width="11" height="12" viewBox="0 0 11 12" fill="none" xmlns="http://www.w3.org/2000/svg">
<path d="M6.40625 10.1953H3.89062V12H1.92187V10.1953H0.320311V8.60937H1.92187V7.77344H0.320311V6.1875H1.92187V0.624996H6.27344C7.52865 0.624996 8.53125 0.953121 9.28125 1.60937C10.0313 2.26041 10.4063 3.1276 10.4063 4.21093C10.4063 5.3151 10.0495 6.18229 9.33594 6.8125C8.6224 7.4375 7.63021 7.75781 6.35938 7.77344H3.89062V8.60937H6.40625V10.1953ZM3.89062 6.1875H6.24219C6.95052 6.1875 7.49219 6.02344 7.86719 5.69531C8.24219 5.36719 8.42969 4.8776 8.42969 4.22656C8.42969 3.64323 8.24479 3.16666 7.875 2.79687C7.51042 2.42708 7.00521 2.23437 6.35938 2.21875H3.89062V6.1875Z" fill="white"/>
</svg>
